<?xml version="1.0" standalone="no"?><!DOCTYPE svg PUBLIC "-//W3C//DTD SVG 1.1//EN"
        "http://www.w3.org/Graphics/SVG/1.1/DTD/svg11.dtd">
<svg t="1598461113789" class="icon" viewBox="0 0 1024 1024" version="1.1" xmlns="http://www.w3.org/2000/svg" p-id="1160"
     xmlns:xlink="http://www.w3.org/1999/xlink" width="200" height="200">
    <defs>
        <style type="text/css"></style>
    </defs>
    <path d="M352 64h320a32 32 0 0 1 0 64H352a32 32 0 0 1 0-64z" fill="#2B82D8" p-id="1161"></path>
    <path d="M403.2 288h313.6a51.2 51.2 0 0 1 51.2 51.2v506.528a51.2 51.2 0 0 1-73.824 45.92l-111.584-54.912a51.264 51.264 0 0 0-45.216 0l-111.584 54.912A51.2 51.2 0 0 1 352 845.728V339.2A51.2 51.2 0 0 1 403.2 288z"
          fill="#CAE705" p-id="1162"></path>
    <path d="M400 496a32 32 0 0 1 0-64h224a32 32 0 0 1 0 64h-224z" fill="#2B82D8" p-id="1163"></path>
    <path d="M480 352a32 32 0 0 1 64 0v224a32 32 0 0 1-64 0v-224z" fill="#2B82D8" p-id="1164"></path>
    <path d="M320 224v632.448l134.752-67.392a128.032 128.032 0 0 1 114.496 0L704 856.448V224H320z m0-64h384a64 64 0 0 1 64 64v632.448a64 64 0 0 1-92.608 57.248l-134.752-67.392a63.904 63.904 0 0 0-57.248 0l-134.752 67.392A64 64 0 0 1 256 856.448V224a64 64 0 0 1 64-64z"
          fill="#2B82D8" p-id="1165"></path>
</svg>