<?xml version="1.0" standalone="no"?><!DOCTYPE svg PUBLIC "-//W3C//DTD SVG 1.1//EN" "http://www.w3.org/Graphics/SVG/1.1/DTD/svg11.dtd"><svg t="1599324370112" class="icon" viewBox="0 0 1024 1024" version="1.1" xmlns="http://www.w3.org/2000/svg" p-id="601" xmlns:xlink="http://www.w3.org/1999/xlink" width="200" height="200"><defs><style type="text/css"></style></defs><path d="M711.437 962.144c-15.286 0-29.523-5.879-40.167-16.564l-389.697-390.391c-1.425-1.393-2.537-2.578-3.45-3.847l-2.304-2.905c-11.362-11.416-16.946-24.85-16.946-39.069 0-14.47599999 5.708-28.01 16.057-38.10999999L667.308 83.04c10.612-10.467 24.785-16.237 39.892-16.237 14.773 0 28.727 5.6 39.288 15.754 10.497 10.186 16.539 24.39 16.539 38.952 0 14.38299999-5.723 28.01-16.143 38.367l-353.969 350.17 358.486 359.429c10.25 10.31 15.91 23.781 15.91 37.994 0 14.89-6.053 28.86-17 39.334-10.42 9.89000001-24.25 15.34-38.874 15.33999999z" p-id="602"></path></svg>